<?xml version="1.0" encoding="utf-8"?>
<!-- Generator: Adobe Illustrator 14.0.0, SVG Export Plug-In . SVG Version: 6.00 Build 43363)  -->
<!DOCTYPE svg PUBLIC "-//W3C//DTD SVG 1.0//EN" "http://www.w3.org/TR/2001/REC-SVG-20010904/DTD/svg10.dtd">
<svg version="1.0" id="Calque_1" xmlns="http://www.w3.org/2000/svg" xmlns:xlink="http://www.w3.org/1999/xlink" x="0px" y="0px"
	 width="12.818px" height="24.947px" viewBox="0 0 12.818 24.947" enable-background="new 0 0 12.818 24.947" xml:space="preserve">
<path fill="#CF122D" d="M1.251,24.947c-0.396,0-0.785-0.188-1.025-0.537c-0.396-0.566-0.253-1.346,0.313-1.74
	c5.03-3.488,9.407-8.916,9.771-10.21C9.933,11.166,5.547,5.754,0.537,2.278c-0.564-0.396-0.708-1.173-0.313-1.74
	C0.617-0.03,1.396-0.168,1.963,0.223c4.642,3.22,10.855,9.855,10.855,12.231c0,2.438-6.115,8.979-10.855,12.271
	C1.745,24.875,1.497,24.947,1.251,24.947"/>
</svg>
