<?xml version="1.0" encoding="utf-8"?>
<!-- Generator: Adobe Illustrator 14.0.0, SVG Export Plug-In . SVG Version: 6.00 Build 43363)  -->
<!DOCTYPE svg PUBLIC "-//W3C//DTD SVG 1.0//EN" "http://www.w3.org/TR/2001/REC-SVG-20010904/DTD/svg10.dtd">
<svg version="1.0" id="Calque_1" xmlns="http://www.w3.org/2000/svg" xmlns:xlink="http://www.w3.org/1999/xlink" x="0px" y="0px"
	 width="40px" height="40px" viewBox="0 0 40 40" enable-background="new 0 0 40 40" xml:space="preserve">
<path fill="#111D2F" d="M20,19.888c4.147-2.256,13.315-12.398,13.315-14.146C32.286,5.29,31.198,5.05,30.139,5.05
	c-7.084,0-8.829,5.486-10.139,5.486c-1.091,0-3.055-5.486-10.138-5.486c-1.06,0-2.148,0.24-3.177,0.691
	C6.685,7.489,15.852,17.632,20,19.888"/>
<path fill="#111D2F" d="M37.587,9.673c0,1.938-11.985,14.436-17.588,17.346C14.397,24.108,2.414,11.61,2.413,9.673
	c-1.239,2.32-1.489,5.379,0.161,8.857c3.455,7.287,15.024,16.42,17.45,16.42c2.378,0,13.949-9.133,17.403-16.42
	C39.076,15.052,38.826,11.993,37.587,9.673"/>
</svg>
