<?xml version="1.0" encoding="utf-8"?>
<!-- Generator: Adobe Illustrator 14.0.0, SVG Export Plug-In . SVG Version: 6.00 Build 43363)  -->
<!DOCTYPE svg PUBLIC "-//W3C//DTD SVG 1.1//EN" "http://www.w3.org/Graphics/SVG/1.1/DTD/svg11.dtd">
<svg version="1.1" id="Calque_1" xmlns="http://www.w3.org/2000/svg" xmlns:xlink="http://www.w3.org/1999/xlink" x="0px" y="0px"
	 width="50px" height="50px" viewBox="0 0 50 50" enable-background="new 0 0 50 50" xml:space="preserve">
<path fill="#FFFFFF" d="M48.637,10.978h-1.586V9.866c0-0.414-0.336-0.75-0.75-0.75h-8.166c-0.414,0-0.75,0.336-0.75,0.75v1.111
	h-3.468V7.173c0-0.414-0.336-0.75-0.75-0.75H16.833c-0.414,0-0.75,0.336-0.75,0.75v3.805h-3.468V9.866c0-0.414-0.335-0.75-0.75-0.75
	H3.699c-0.414,0-0.75,0.336-0.75,0.75v1.111H1.364c-0.414,0-0.75,0.336-0.75,0.75v31.1c0,0.414,0.336,0.75,0.75,0.75h47.271
	c0.415,0,0.75-0.336,0.75-0.75v-31.1C49.387,11.313,49.051,10.978,48.637,10.978z M38.885,10.616h6.667v0.361h-6.667V10.616z
	 M17.583,7.923h14.833v3.055H17.583V7.923z M4.449,10.616h6.667v0.361H4.449V10.616z M47.887,42.077H2.114v-29.6h1.585h8.166h4.968
	h16.334h4.968h8.166h1.586V42.077z"/>
<path fill="#FFFFFF" d="M35.643,15.86c-0.875-0.382-1.806-0.584-2.69-0.584c-4.112,0-6.048,2.216-7.203,3.541
	c-0.28,0.322-0.632,0.724-0.68,0.772c-0.115-0.051-0.412-0.396-0.649-0.67c-1.102-1.273-3.15-3.644-7.368-3.644
	c-0.887,0-1.817,0.202-2.691,0.584c-1.537,0.673-2.812,1.849-3.59,3.308c-1.158,2.168-1.117,4.795,0.115,7.396
	c2.771,5.849,11.964,13.16,14.135,13.16c2.163,0,11.327-7.313,14.098-13.16c1.232-2.601,1.273-5.228,0.115-7.396
	C38.453,17.709,37.18,16.533,35.643,15.86z M38.213,26.135c-2.783,5.874-11.747,12.59-13.194,12.59
	c-1.677,0-10.577-6.99-13.23-12.59c-1.402-2.957-0.849-5.165-0.138-6.497c0.673-1.261,1.777-2.277,3.109-2.861
	c0.748-0.327,1.54-0.5,2.29-0.5c3.761,0,5.545,2.064,6.61,3.297c0.524,0.605,0.87,1.007,1.341,1.007
	c0.535,0,0.938-0.465,1.499-1.104c1.111-1.274,2.793-3.199,6.45-3.199c0.75,0,1.542,0.173,2.29,0.5
	c1.332,0.584,2.437,1.601,3.109,2.861C39.063,20.97,39.613,23.178,38.213,26.135z"/>
</svg>
